# This file uses meters as units for non-parametric coordinates.

mtllib OBJ_FoamSword.mtl
g default
v 6.386658 -0.924431 -23.745983
v -6.386658 -0.924432 -23.745983
v -10.978333 3.879522 -23.745972
v -6.386658 8.683477 -23.745983
v 6.386658 8.683478 -23.745983
v 10.978333 3.879524 -23.745972
v 5.659424 -0.924431 -160.265656
v -5.659424 -0.924432 -160.265656
v -9.728271 3.879522 -163.748062
v -5.659424 8.683477 -160.265656
v 5.659424 8.683478 -160.265656
v 9.728271 3.879524 -163.748062
v 0.000000 -0.924432 -23.745983
v 0.000000 -0.924432 -163.289627
v 0.000000 3.879523 -168.978714
v 0.000000 8.683478 -163.289627
v 0.000000 8.683478 -23.745983
v -9.708496 6.281500 -23.745979
v -8.603027 6.281500 -162.743591
v 0.000000 6.281501 -167.253525
v 8.603027 6.281501 -162.743591
v 9.708496 6.281501 -23.745979
v -9.708496 1.477545 -23.745979
v -8.603027 1.477545 -162.743591
v 0.000000 1.477545 -167.253525
v 8.603027 1.477546 -162.743591
v 9.708496 1.477546 -23.745979
v 2.540283 0.000000 20.829681
v -2.540283 0.000001 20.829681
v -5.511536 2.039846 20.829681
v -5.511536 5.719203 20.829681
v -2.540283 7.759048 20.829681
v 2.540283 7.759048 20.829681
v 5.511536 5.719203 20.829681
v 5.511536 2.039846 20.829681
v 2.540283 0.000000 -20.829679
v -2.540283 0.000001 -20.829679
v -5.511536 2.039846 -20.829679
v -5.511536 5.719203 -20.829679
v -2.540283 7.759048 -20.829679
v 2.540283 7.759048 -20.829679
v 5.511536 5.719203 -20.829679
v 5.511536 2.039846 -20.829679
v -33.325684 8.716430 -21.638672
v 33.325684 8.716430 -21.638672
v -35.036316 9.518055 -25.777040
v 35.036316 9.518055 -25.777040
v -35.036316 -1.759008 -25.777040
v 35.036316 -1.759008 -25.777040
v -33.325684 -0.957382 -21.638672
v 33.325684 -0.957382 -21.638672
v -39.546692 3.879524 -25.777040
v -37.615906 3.879524 -21.638672
v 37.615906 3.879524 -21.638672
v 39.546692 3.879524 -25.777040
v -38.125854 7.267535 -25.777040
v -36.264404 7.102118 -21.638672
v 36.264404 7.102118 -21.638672
v 38.125854 7.267535 -25.777040
v -36.264404 0.656929 -21.638672
v -38.125854 0.491512 -25.777040
v 38.125854 0.491512 -25.777040
v 36.264404 0.656929 -21.638672
v 0.000000 10.337563 -18.212299
v 0.000000 11.407861 -25.777040
v 0.000000 7.267535 -25.777040
v 0.000000 3.879524 -25.777040
v 0.000000 0.491512 -25.777040
v 0.000000 -3.648814 -25.777040
v 0.000000 -2.578515 -18.212299
v 0.000000 0.491512 -18.212299
v 0.000000 3.879524 -18.212299
v 0.000000 7.267535 -18.212299
v -35.872925 9.518055 -23.707857
v -39.036255 7.267535 -23.707857
v -40.491028 3.879524 -23.707857
v -39.036255 0.491512 -23.707857
v -35.872925 -1.759008 -23.707857
v 0.000000 -3.648814 -21.994671
v 35.872925 -1.759008 -23.707857
v 39.036255 0.491512 -23.707857
v 40.491028 3.879524 -23.707857
v 39.036255 7.267535 -23.707857
v 35.872925 9.518055 -23.707857
v 0.000000 11.407861 -21.994671
v 2.494766 -0.391521 18.906986
v -2.494766 -0.391521 18.906986
v -6.022898 -0.391521 22.435120
v -6.022898 -0.391521 27.424652
v -2.494766 -0.391521 30.952785
v 2.494766 -0.391521 30.952785
v 6.022900 -0.391521 27.424652
v 6.022900 -0.391521 22.435120
v 2.494766 8.150568 18.906986
v -2.494766 8.150568 18.906986
v -6.022898 8.150568 22.435120
v -6.022898 8.150568 27.424652
v -2.494766 8.150568 30.952785
v 2.494766 8.150568 30.952785
v 6.022900 8.150568 27.424652
v 6.022900 8.150568 22.435120
v 3.398895 6.015046 16.724228
v 8.205658 6.015046 21.530991
v 8.205659 6.015046 28.328781
v 3.398895 6.015046 33.135544
v -3.398895 6.015046 33.135544
v -8.205658 6.015046 28.328781
v -8.205658 6.015046 21.530991
v -3.398895 6.015046 16.724228
v 3.398895 1.744001 16.724228
v 8.205658 1.744001 21.530991
v 8.205659 1.744001 28.328781
v 3.398895 1.744001 33.135544
v -3.398895 1.744001 33.135544
v -8.205658 1.744001 28.328781
v -8.205658 1.744001 21.530991
v -3.398895 1.744001 16.724228
vt 0.622397 0.037618
vt 0.928271 0.066474
vt 0.658550 0.884227
vt 0.623379 0.838871
vt 0.965605 0.066475
vt 0.691046 0.040594
vt 0.688257 0.850914
vt 0.666205 0.841901
vt 0.707234 0.040585
vt 0.723422 0.040738
vt 0.719011 0.851052
vt 0.703619 0.854245
vt 0.541186 0.881641
vt 0.825148 0.066474
vt 0.862482 0.066473
vt 0.548443 0.839244
vt 0.570578 0.848049
vt 0.565740 0.037740
vt 0.581927 0.037579
vt 0.585971 0.851234
vt 0.601333 0.847896
vt 0.598115 0.037580
vt 0.605275 0.899324
vt 0.586237 0.905066
vt 0.567143 0.899512
vt 0.747702 0.041005
vt 0.741141 0.842234
vt 0.304754 0.314048
vt 0.462626 0.314025
vt 0.462590 0.069128
vt 0.492456 0.069124
vt 0.441439 0.314028
vt 0.441403 0.069131
vt 0.419810 0.314031
vt 0.419774 0.069134
vt 0.398623 0.314034
vt 0.398587 0.069137
vt 0.368757 0.314039
vt 0.368721 0.069142
vt 0.347570 0.314042
vt 0.347534 0.069145
vt 0.325941 0.314045
vt 0.325905 0.069148
vt 0.435502 0.862964
vt 0.136278 0.662849
vt 0.439050 0.667522
vt 0.448873 0.876795
vt 0.461057 0.872821
vt 0.461183 0.667342
vt 0.193688 0.658312
vt 0.190372 0.881156
vt 0.370707 0.456058
vt 0.364338 0.663194
vt 0.341574 0.663377
vt 0.357704 0.469952
vt 0.431458 0.883699
vt 0.117515 0.662464
vt 0.432328 0.472164
vt 0.121079 0.439824
vt 0.441987 0.437502
vt 0.445472 0.458117
vt 0.445723 0.897464
vt 0.072538 0.884256
vt 0.367261 0.435666
vt 0.076102 0.661616
vt 0.374037 0.870201
vt 0.370920 0.890646
vt 0.356810 0.877029
vt 0.360813 0.856519
vt 0.380060 0.436290
vt 0.233293 0.658902
vt 0.386231 0.663018
vt 0.382821 0.459794
vt 0.361010 0.416145
vt 0.422692 0.903563
vt 0.096808 0.662040
vt 0.435666 0.417768
vt 0.101539 0.431195
vt 0.213491 0.658607
vt 0.210051 0.889755
vt 0.457719 0.461892
vt 0.454926 0.438132
vt 0.449582 0.416340
vt 0.236610 0.436058
vt 0.386089 0.866271
vt 0.097218 0.199735
vt 0.076591 0.220356
vt 0.233788 0.091003
vt 0.236248 0.052101
vt 0.251699 0.127929
vt 0.233808 0.127102
vt 0.252049 0.163242
vt 0.234014 0.162726
vt 0.126373 0.270155
vt 0.234184 0.198296
vt 0.147001 0.249534
vt 0.234292 0.233910
vt 0.252243 0.269765
vt 0.234244 0.269727
vt 0.252046 0.304637
vt 0.233829 0.306323
vt 0.191489 0.303616
vt 0.188511 0.335399
vt 0.190796 0.233623
vt 0.191146 0.268937
vt 0.190798 0.092228
vt 0.190590 0.198130
vt 0.190601 0.127100
vt 0.190505 0.162585
vt 0.209056 0.305862
vt 0.206596 0.344765
vt 0.209036 0.269763
vt 0.208831 0.234139
vt 0.208661 0.198569
vt 0.208553 0.162955
vt 0.208601 0.127139
vt 0.209016 0.090543
vt 0.234897 0.344364
vt 0.207948 0.052501
vt 0.130495 0.180035
vt 0.188513 0.060649
vt 0.254331 0.336217
vt 0.254333 0.061466
vt 0.151119 0.159410
vt 0.151117 0.130244
vt 0.130493 0.109620
vt 0.101326 0.109622
vt 0.080703 0.130247
vt 0.080704 0.159413
vt 0.101329 0.180037
vt 0.126385 0.199740
vt 0.147006 0.220368
vt 0.252340 0.234280
vt 0.252254 0.198736
vt 0.097206 0.270150
vt 0.076586 0.249522
vt 0.251355 0.093250
vt 0.057339 0.661231
vt 0.257493 0.659262
vt 0.071286 0.456692
vt 0.249495 0.454312
vt 0.169488 0.657952
vt 0.183581 0.453331
vt 0.416037 0.667709
vt 0.130722 0.457909
vt 0.081662 0.439016
vt 0.418860 0.431778
vt 0.383707 0.889816
vt 0.229977 0.881745
vt 0.243400 0.863883
vt 0.353372 0.449508
vt 0.092078 0.892886
vt 0.197004 0.435469
vt 0.216930 0.427459
vt 0.427947 0.451497
vt 0.111955 0.885064
vt 0.122331 0.867389
vt 0.458650 0.896624
vt 0.453660 0.918500
vt 0.062895 0.866171
vt 0.177486 0.862902
vt 0.492492 0.314021
vt 0.304718 0.069151
vt 0.684339 0.902343
vt 0.703382 0.908077
vt 0.722475 0.902514
vt 0.825169 0.882189
vt 0.748423 0.884624
vt 0.928247 0.882189
vt 0.631053 0.881196
vt 0.858252 0.864512
vt 0.961330 0.864513
vt 0.541460 0.038020
vt 0.787814 0.066475
vt 0.792086 0.864513
vt 0.666764 0.040645
vt 0.890937 0.066473
vt 0.895165 0.864511
vt 0.364984 0.910265
vt 0.378769 0.911455
vt 0.439723 0.917298
vt 0.344385 0.430002
vt 0.348138 0.896677
vt 0.374775 0.414734
vn 0.000000 -1.000000 -0.000000
vn 0.000000 -1.000000 -0.000000
vn 0.000000 -1.000000 -0.000000
vn 0.000000 -1.000000 -0.000000
vn -0.607455 -0.794344 -0.004041
vn -0.743227 -0.669016 -0.005616
vn -0.790984 -0.611805 -0.006199
vn -0.607455 -0.794344 -0.004041
vn -0.894284 0.447436 -0.007550
vn -0.743227 0.669016 -0.005616
vn -0.790985 0.611805 -0.006199
vn -0.894284 0.447436 -0.007550
vn -0.000000 1.000000 0.000000
vn -0.000000 1.000000 0.000000
vn 0.000000 1.000000 0.000000
vn 0.000000 1.000000 0.000000
vn 0.790984 0.611805 -0.006199
vn 0.743227 0.669016 -0.005616
vn 0.894284 0.447437 -0.007550
vn 0.894284 0.447436 -0.007550
vn 0.790984 -0.611805 -0.006199
vn 0.743227 -0.669016 -0.005616
vn 0.607455 -0.794344 -0.004041
vn 0.607455 -0.794344 -0.004041
vn 0.262483 -0.827157 -0.496905
vn 0.000000 -0.857213 -0.514961
vn 0.000000 -0.711447 -0.702740
vn 0.345320 -0.675756 -0.651235
vn 0.469234 -0.000000 -0.883074
vn -0.000000 0.000000 -1.000000
vn -0.000000 0.711447 -0.702740
vn 0.345319 0.675757 -0.651236
vn 0.000000 -1.000000 0.000000
vn 0.000000 -1.000000 0.000000
vn -0.345320 -0.675756 -0.651235
vn -0.262483 -0.827157 -0.496905
vn -0.345320 0.675756 -0.651235
vn -0.469234 0.000000 -0.883074
vn -0.000000 1.000000 0.000000
vn -0.000000 1.000000 0.000000
vn -0.607456 0.794343 -0.004041
vn -0.607456 0.794344 -0.004041
vn 0.000000 0.857213 -0.514961
vn -0.262482 0.827157 -0.496905
vn 0.262482 0.827157 -0.496905
vn 0.607456 0.794343 -0.004041
vn 0.607456 0.794343 -0.004041
vn -0.894284 -0.447437 -0.007550
vn -0.894284 -0.447437 -0.007550
vn 0.894284 -0.447437 -0.007550
vn 0.894284 -0.447436 -0.007550
vn -0.000000 -1.000000 0.000000
vn -0.000000 -1.000000 0.000000
vn -0.000000 -1.000000 0.000000
vn -0.000000 -1.000000 0.000000
vn -0.565984 -0.824416 0.000000
vn -0.565984 -0.824416 0.000000
vn -0.565984 -0.824416 0.000000
vn -0.565984 -0.824416 0.000000
vn -1.000000 0.000000 0.000000
vn -1.000000 0.000000 0.000000
vn -1.000000 0.000000 0.000000
vn -1.000000 0.000000 0.000000
vn -0.565984 0.824416 0.000000
vn -0.565984 0.824416 0.000000
vn -0.565984 0.824416 0.000000
vn -0.565984 0.824416 0.000000
vn 0.000000 1.000000 0.000000
vn 0.000000 1.000000 0.000000
vn 0.000000 1.000000 0.000000
vn 0.000000 1.000000 0.000000
vn 0.565984 0.824416 0.000000
vn 0.565984 0.824416 0.000000
vn 0.565984 0.824416 0.000000
vn 0.565984 0.824416 0.000000
vn 1.000000 0.000000 0.000000
vn 1.000000 0.000000 0.000000
vn 1.000000 0.000000 0.000000
vn 1.000000 0.000000 0.000000
vn 0.565984 -0.824416 0.000000
vn 0.565984 -0.824416 0.000000
vn 0.565984 -0.824416 0.000000
vn 0.565984 -0.824416 0.000000
vn -0.072396 0.940376 0.332342
vn 0.000000 0.942850 0.333217
vn 0.000000 0.985528 0.169514
vn -0.060843 0.991354 0.116257
vn -0.000000 0.000000 -1.000000
vn -0.000000 0.000000 -1.000000
vn -0.000000 0.000000 -1.000000
vn -0.000000 0.000000 -1.000000
vn -0.060843 -0.991354 0.116258
vn 0.000000 -0.985528 0.169514
vn 0.000000 -0.942850 0.333217
vn -0.072396 -0.940376 0.332343
vn -0.093409 0.025177 0.995310
vn 0.000000 0.036382 0.999338
vn 0.000000 0.062665 0.998035
vn -0.099394 0.062355 0.993093
vn 0.400661 0.632591 0.662796
vn 0.480104 0.486371 0.730030
vn 0.764946 0.542104 0.347824
vn 0.531666 0.787555 0.311591
vn -0.531666 0.787555 0.311591
vn -0.764946 0.542104 0.347824
vn -0.480104 0.486371 0.730030
vn -0.400661 0.632591 0.662796
vn -0.400661 -0.632591 0.662796
vn -0.480104 -0.486371 0.730030
vn -0.764946 -0.542104 0.347824
vn -0.531666 -0.787555 0.311591
vn -0.099394 -0.062355 0.993093
vn 0.000000 -0.062665 0.998035
vn 0.000000 -0.036382 0.999338
vn -0.093409 -0.025177 0.995310
vn 0.531666 -0.787555 0.311591
vn 0.764946 -0.542104 0.347824
vn 0.480104 -0.486371 0.730030
vn 0.400661 -0.632591 0.662796
vn 0.000000 0.000000 -1.000000
vn 0.000000 0.000000 -1.000000
vn 0.000000 0.000000 -1.000000
vn 0.000000 0.000000 -1.000000
vn -0.928572 0.000000 0.371153
vn -0.586355 0.000000 0.810054
vn -0.092400 0.000000 0.995722
vn -0.000000 0.000000 1.000000
vn 0.928572 0.000000 0.371153
vn 0.586355 0.000000 0.810054
vn 0.000000 0.000000 -1.000000
vn 0.000000 0.000000 -1.000000
vn 0.060843 0.991354 0.116257
vn 0.072396 0.940376 0.332342
vn 0.000000 0.000000 -1.000000
vn 0.000000 0.000000 -1.000000
vn 0.000000 0.000000 -1.000000
vn 0.000000 0.000000 -1.000000
vn 0.000000 0.000000 -1.000000
vn 0.060843 -0.991354 0.116258
vn 0.072396 -0.940376 0.332343
vn 0.099394 -0.062355 0.993093
vn 0.093409 -0.025177 0.995310
vn 0.092400 0.000000 0.995722
vn 0.093409 0.025177 0.995310
vn 0.099394 0.062355 0.993093
vn -0.713600 0.627709 -0.311056
vn -0.567221 0.787987 -0.239452
vn -0.912542 0.000000 -0.408984
vn -0.713600 -0.627709 -0.311057
vn -0.567221 -0.787987 -0.239452
vn -0.053042 -0.998563 -0.007584
vn 0.000000 -0.999971 -0.007594
vn 0.053042 -0.998563 -0.007584
vn 0.713600 -0.627709 -0.311057
vn 0.567221 -0.787987 -0.239452
vn 0.912542 -0.000000 -0.408984
vn 0.713600 0.627709 -0.311057
vn 0.567221 0.787987 -0.239452
vn 0.000000 0.999971 -0.007594
vn 0.053042 0.998563 -0.007584
vn -0.053042 0.998563 -0.007584
vn 0.000000 -0.714799 -0.699330
vn 0.000000 -0.714799 -0.699330
vn 0.000000 -0.258200 -0.966092
vn 0.000000 -0.258200 -0.966092
vn -0.494501 -0.714799 -0.494501
vn -0.494501 -0.714799 -0.494501
vn -0.683130 -0.258200 -0.683130
vn -0.683130 -0.258200 -0.683130
vn -0.699330 -0.714799 0.000000
vn -0.699330 -0.714799 0.000000
vn -0.966092 -0.258200 0.000000
vn -0.966092 -0.258200 0.000000
vn -0.494501 -0.714799 0.494501
vn -0.494501 -0.714799 0.494501
vn -0.683130 -0.258200 0.683130
vn -0.683130 -0.258200 0.683130
vn 0.000000 -0.714799 0.699330
vn 0.000000 -0.714799 0.699330
vn 0.000000 -0.258200 0.966092
vn 0.000000 -0.258200 0.966091
vn 0.494501 -0.714799 0.494501
vn 0.494501 -0.714799 0.494501
vn 0.683130 -0.258200 0.683130
vn 0.683130 -0.258200 0.683130
vn 0.699330 -0.714799 -0.000000
vn 0.699330 -0.714799 -0.000000
vn 0.966091 -0.258200 -0.000000
vn 0.966092 -0.258200 -0.000000
vn 0.494501 -0.714799 -0.494501
vn 0.494501 -0.714799 -0.494501
vn 0.683130 -0.258200 -0.683130
vn 0.683130 -0.258200 -0.683130
vn 0.000000 -1.000000 0.000000
vn 0.000000 -1.000000 0.000000
vn 0.000000 -1.000000 0.000000
vn 0.000000 -1.000000 0.000000
vn 0.000000 1.000000 0.000000
vn 0.000000 1.000000 0.000000
vn 0.000000 1.000000 0.000000
vn 0.000000 1.000000 0.000000
vn 0.000000 1.000000 0.000000
vn 0.000000 1.000000 0.000000
vn 0.000000 1.000000 0.000000
vn 0.000000 1.000000 0.000000
vn 0.000000 -1.000000 0.000000
vn 0.000000 -1.000000 0.000000
vn 0.000000 -1.000000 0.000000
vn 0.000000 -1.000000 0.000000
vn 0.683130 0.258200 -0.683130
vn 0.683130 0.258200 -0.683130
vn 0.494501 0.714799 -0.494501
vn 0.494501 0.714799 -0.494501
vn 0.966092 0.258200 -0.000000
vn 0.966092 0.258200 -0.000000
vn 0.699330 0.714799 -0.000000
vn 0.699330 0.714799 -0.000000
vn 0.683130 0.258200 0.683130
vn 0.683130 0.258200 0.683130
vn 0.494501 0.714799 0.494501
vn 0.494501 0.714799 0.494501
vn 0.000000 0.258200 0.966092
vn 0.000000 0.258200 0.966092
vn 0.000000 0.714799 0.699330
vn 0.000000 0.714799 0.699330
vn -0.683130 0.258200 0.683130
vn -0.683130 0.258200 0.683130
vn -0.494501 0.714799 0.494501
vn -0.494501 0.714799 0.494501
vn -0.966091 0.258200 0.000000
vn -0.966091 0.258200 0.000000
vn -0.699330 0.714799 0.000000
vn -0.699330 0.714799 0.000000
vn -0.683130 0.258200 -0.683130
vn -0.683130 0.258200 -0.683130
vn -0.494501 0.714799 -0.494501
vn -0.494501 0.714799 -0.494501
vn 0.000000 0.258200 -0.966092
vn 0.000000 0.258200 -0.966092
vn 0.000000 0.714799 -0.699330
vn 0.000000 0.714799 -0.699330
s 1
g Sword1
usemtl initialShadingGroup
f 1/177/1 13/2/2 14/169/3 7/178/4
s 2
f 2/176/5 23/6/6 24/7/7 8/8/8
s 3
f 3/9/9 18/10/10 19/11/11 9/12/12
s 4
f 16/167/13 17/14/14 5/15/15 11/171/16
s 5
f 21/17/17 22/18/18 6/19/19 12/20/20
s 6
f 26/21/21 27/22/22 1/1/23 7/4/24
s 7
f 7/4/25 14/170/26 25/23/27 26/21/28
f 12/20/29 15/24/30 20/25/31 21/17/32
s 1
f 14/169/3 13/2/2 2/5/33 8/172/34
s 7
f 24/7/35 25/164/27 14/3/26 8/8/36
f 19/11/37 20/166/31 15/165/30 9/12/38
s 4
f 4/174/39 17/14/14 16/167/13 10/175/40
s 3
f 19/11/11 18/10/10 4/26/41 10/27/42
s 7
f 16/168/43 20/166/31 19/11/37 10/27/44
f 21/17/32 20/25/31 16/13/43 11/16/45
s 5
f 5/173/46 22/18/18 21/17/17 11/16/47
s 2
f 24/7/7 23/6/6 3/9/48 9/12/49
s 7
f 15/165/30 25/164/27 24/7/35 9/12/38
f 26/21/28 25/23/27 15/24/30 12/20/29
s 6
f 6/19/50 27/22/22 26/21/21 12/20/51
s off
f 28/162/52 29/29/53 37/30/54 36/31/55
f 29/29/56 30/32/57 38/33/58 37/30/59
f 30/32/60 31/34/61 39/35/62 38/33/63
f 31/34/64 32/36/65 40/37/66 39/35/67
f 32/36/68 33/38/69 41/39/70 40/37/71
f 33/38/72 34/40/73 42/41/74 41/39/75
f 34/40/76 35/42/77 43/43/78 42/41/79
f 35/42/80 28/28/81 36/163/82 43/43/83
s 8
f 44/44/84 64/144/85 85/46/86 74/47/87
s 9
f 46/161/88 65/142/89 66/50/90 56/51/91
s 10
f 78/52/92 79/53/93 70/54/94 50/55/95
s 11
f 57/156/96 73/57/97 64/45/98 44/157/99
s 12
f 45/58/100 58/155/101 83/60/102 84/61/103
s 13
f 74/47/104 75/62/105 57/56/106 44/44/107
f 50/55/108 60/151/109 77/64/110 78/52/111
s 11
f 50/160/112 70/138/113 71/65/114 60/63/115
s 12
f 80/66/116 81/67/117 63/68/118 51/69/119
s 9
f 61/149/120 68/71/121 69/139/122 48/150/123
s 13
f 75/62/105 76/181/124 53/75/125 57/56/106
s 11
f 53/152/126 72/76/127 73/57/97 57/156/96
s 12
f 82/77/128 83/60/102 58/155/101 54/147/129
s 9
f 56/51/91 66/50/90 67/79/130 52/80/131
s 13
f 76/74/124 77/64/110 60/151/109 53/182/125
s 9
f 52/80/131 67/79/130 68/71/121 61/149/120
s 12
f 81/67/117 82/179/128 54/183/129 63/68/118
s 11
f 60/63/115 71/65/114 72/76/127 53/152/126
s 8
f 84/61/132 85/46/86 64/144/85 45/58/133
s 9
f 66/50/90 65/142/89 47/143/134 59/153/135
f 67/79/130 66/50/90 59/153/135 55/154/136
f 68/71/121 67/79/130 55/154/136 62/84/137
f 69/139/122 68/71/121 62/84/137 49/141/138
s 10
f 70/54/94 79/53/93 80/66/139 51/69/140
s 11
f 71/65/114 70/138/113 51/140/141 63/146/142
f 72/76/127 71/65/114 63/146/142 54/78/143
f 73/57/97 72/76/127 54/78/143 58/59/144
f 64/45/98 73/57/97 58/59/144 45/145/145
s 13
f 56/158/146 75/62/105 74/47/104 46/48/147
f 52/159/148 76/181/124 75/62/105 56/158/146
f 61/70/149 77/64/110 76/74/124 52/184/148
f 78/52/111 77/64/110 61/70/149 48/73/150
s 10
f 48/73/151 69/72/152 79/53/93 78/52/92
f 80/66/139 79/53/93 69/72/152 49/85/153
s 12
f 62/148/154 81/67/117 80/66/116 49/85/155
f 55/180/156 82/179/128 81/67/117 62/148/154
f 59/82/157 83/60/102 82/77/128 55/83/156
f 84/61/103 83/60/102 59/82/157 47/81/158
s 8
f 65/49/159 85/46/86 84/61/132 47/81/160
f 74/47/87 85/46/86 65/49/159 46/48/161
s 18
f 86/123/162 87/137/163 117/88/164 110/89/165
s 19
f 87/137/166 88/90/167 116/91/168 117/88/169
s 20
f 88/90/170 89/92/171 115/93/172 116/91/173
s 21
f 89/92/174 90/134/175 114/95/176 115/93/177
s 22
f 90/134/178 91/133/179 113/97/180 114/95/181
s 23
f 91/133/182 92/98/183 112/99/184 113/97/185
s 24
f 92/98/186 93/100/187 111/101/188 112/99/189
s 25
f 93/100/190 86/122/191 110/118/192 111/101/193
s 26
f 92/132/194 91/96/195 86/86/196 93/131/197
s 27
f 101/124/198 94/120/199 99/126/200 100/125/201
f 99/126/200 94/120/199 95/130/202 98/127/203
f 98/127/203 95/130/202 96/129/204 97/128/205
s 26
f 87/87/206 90/94/207 89/135/208 88/136/209
f 86/86/196 91/96/195 90/94/207 87/87/206
s 25
f 103/110/210 102/111/211 94/103/212 101/102/213
s 24
f 104/112/214 103/110/215 101/102/216 100/105/217
s 23
f 105/113/218 104/112/219 100/105/220 99/104/221
s 22
f 106/114/222 105/113/223 99/104/224 98/107/225
s 21
f 107/115/226 106/114/227 98/107/228 97/109/229
s 20
f 108/116/230 107/115/231 97/109/232 96/108/233
s 19
f 109/117/234 108/116/235 96/108/236 95/106/237
s 18
f 102/119/238 109/117/239 95/106/240 94/121/241
s 25
f 103/110/210 111/101/193 110/118/192 102/111/211
s 24
f 104/112/214 112/99/189 111/101/188 103/110/215
s 23
f 105/113/218 113/97/185 112/99/184 104/112/219
s 22
f 106/114/222 114/95/181 113/97/180 105/113/223
s 21
f 107/115/226 115/93/177 114/95/176 106/114/227
s 20
f 108/116/230 116/91/173 115/93/172 107/115/231
s 19
f 109/117/234 117/88/169 116/91/168 108/116/235
s 18
f 102/119/238 110/89/165 117/88/164 109/117/239
