# This file uses meters as units for non-parametric coordinates.

mtllib wheel_base.mtl
g default
v -18.887108 43.300919 23.772804
v -18.887108 33.779297 24.686943
v -18.887108 25.076263 20.717796
v -18.887108 19.523796 12.928917
v -18.887108 18.609665 3.407288
v -18.887108 22.578796 -5.295743
v -18.887108 30.367691 -10.848213
v -18.887108 39.889313 -11.762352
v -18.887108 48.592346 -7.793198
v -18.887108 54.144821 -0.004318
v -18.887108 55.058960 9.517300
v -18.887100 51.089813 18.220331
v -4.694916 43.300926 23.772804
v -4.694916 33.779305 24.686943
v -4.694916 25.076271 20.717796
v -4.694916 19.523796 12.928917
v -4.694916 18.609657 3.407284
v -4.694916 22.578804 -5.295741
v -4.694916 30.367699 -10.848213
v -4.694916 39.889309 -11.762352
v -4.694916 48.592335 -7.793205
v -4.694916 54.144821 -0.004318
v -4.694916 55.058956 9.517300
v -4.694916 51.089813 18.220331
v -18.887108 36.834305 6.462294
v -4.694916 36.834305 6.462294
vt 0.189753 0.414176
vt 0.152533 0.376956
vt 0.101689 0.363332
vt 0.050844 0.376956
vt 0.013624 0.414176
vt 0.000000 0.465021
vt 0.013624 0.515865
vt 0.050844 0.553086
vt 0.101689 0.566709
vt 0.152533 0.553086
vt 0.189753 0.515865
vt 0.203377 0.465021
vt 0.921903 0.965473
vt 0.921536 0.912836
vt 0.921168 0.860200
vt 0.920801 0.807563
vt 0.920434 0.754927
vt 0.920066 0.702290
vt 0.919699 0.649653
vt 0.919331 0.597017
vt 0.918964 0.544380
vt 0.918597 0.491744
vt 0.918229 0.439107
vt 0.917862 0.386471
vt 0.917495 0.333834
vt 1.000000 0.964928
vt 0.999633 0.912291
vt 0.999265 0.859655
vt 0.998898 0.807018
vt 0.998531 0.754381
vt 0.998163 0.701745
vt 0.997796 0.649108
vt 0.997428 0.596472
vt 0.997061 0.543835
vt 0.996694 0.491199
vt 0.996326 0.438562
vt 0.995959 0.385925
vt 0.995592 0.333289
vt 0.675486 0.546821
vt 0.638265 0.509600
vt 0.587421 0.495977
vt 0.536577 0.509600
vt 0.499356 0.546821
vt 0.485732 0.597665
vt 0.499356 0.648509
vt 0.536577 0.685730
vt 0.587421 0.699354
vt 0.638265 0.685730
vt 0.675486 0.648509
vt 0.689110 0.597665
vt 0.101689 0.465021
vt 0.587421 0.597665
vn -0.000000 0.095567 0.995423
vn -0.000000 0.095567 0.995423
vn -0.000000 0.095567 0.995423
vn -0.000000 0.095567 0.995423
vn 0.000000 -0.414948 0.909845
vn 0.000000 -0.414948 0.909845
vn 0.000000 -0.414948 0.909845
vn 0.000000 -0.414948 0.909845
vn 0.000000 -0.814278 0.580476
vn 0.000000 -0.814278 0.580476
vn 0.000000 -0.814278 0.580476
vn 0.000000 -0.814278 0.580476
vn -0.000000 -0.995423 0.095567
vn -0.000000 -0.995423 0.095567
vn -0.000000 -0.995423 0.095567
vn -0.000000 -0.995423 0.095567
vn -0.000000 -0.909845 -0.414948
vn -0.000000 -0.909845 -0.414948
vn -0.000000 -0.909845 -0.414948
vn -0.000000 -0.909845 -0.414948
vn 0.000000 -0.580475 -0.814278
vn 0.000000 -0.580475 -0.814278
vn 0.000000 -0.580475 -0.814278
vn 0.000000 -0.580475 -0.814278
vn 0.000000 -0.095567 -0.995423
vn 0.000000 -0.095567 -0.995423
vn 0.000000 -0.095567 -0.995423
vn 0.000000 -0.095567 -0.995423
vn -0.000000 0.414949 -0.909845
vn -0.000000 0.414949 -0.909845
vn -0.000000 0.414949 -0.909845
vn -0.000000 0.414949 -0.909845
vn 0.000000 0.814277 -0.580476
vn 0.000000 0.814277 -0.580476
vn 0.000000 0.814277 -0.580476
vn 0.000000 0.814277 -0.580476
vn 0.000000 0.995423 -0.095567
vn 0.000000 0.995423 -0.095567
vn 0.000000 0.995423 -0.095567
vn 0.000000 0.995423 -0.095567
vn 0.000000 0.909845 0.414948
vn 0.000000 0.909845 0.414948
vn 0.000000 0.909845 0.414948
vn 0.000000 0.909845 0.414948
vn -0.000000 0.580475 0.814278
vn -0.000000 0.580475 0.814278
vn -0.000000 0.580475 0.814278
vn -0.000000 0.580475 0.814278
vn -1.000000 -0.000000 0.000000
vn -1.000000 0.000000 -0.000000
vn -1.000000 0.000000 0.000000
vn -1.000000 0.000000 0.000000
vn -1.000000 0.000000 0.000000
vn -1.000000 0.000000 0.000000
vn -1.000000 0.000000 0.000000
vn -1.000000 0.000000 0.000000
vn -1.000000 0.000000 0.000000
vn -1.000000 -0.000000 0.000000
vn -1.000000 -0.000000 0.000000
vn -1.000000 -0.000000 0.000000
vn -1.000000 0.000000 0.000000
vn 1.000000 -0.000000 -0.000000
vn 1.000000 -0.000000 -0.000000
vn 1.000000 -0.000000 -0.000000
vn 1.000000 0.000000 0.000000
vn 1.000000 0.000000 0.000000
vn 1.000000 -0.000000 0.000000
vn 1.000000 -0.000000 0.000000
vn 1.000000 0.000000 0.000000
vn 1.000000 0.000000 0.000000
vn 1.000000 -0.000000 -0.000000
vn 1.000000 -0.000000 -0.000000
vn 1.000000 -0.000000 -0.000000
vn 1.000000 -0.000000 -0.000000
s off
g wheel
usemtl lambert3SG
f 1/13/1 2/14/2 14/27/3 13/26/4
f 2/14/5 3/15/6 15/28/7 14/27/8
f 3/15/9 4/16/10 16/29/11 15/28/12
f 4/16/13 5/17/14 17/30/15 16/29/16
f 5/17/17 6/18/18 18/31/19 17/30/20
f 6/18/21 7/19/22 19/32/23 18/31/24
f 7/19/25 8/20/26 20/33/27 19/32/28
f 8/20/29 9/21/30 21/34/31 20/33/32
f 9/21/33 10/22/34 22/35/35 21/34/36
f 10/22/37 11/23/38 23/36/39 22/35/40
f 11/23/41 12/24/42 24/37/43 23/36/44
f 12/24/45 1/25/46 13/38/47 24/37/48
s 1
f 2/2/49 1/1/50 25/51/51
f 3/3/52 2/2/49 25/51/51
f 4/4/53 3/3/52 25/51/51
f 5/5/54 4/4/53 25/51/51
f 6/6/55 5/5/54 25/51/51
f 7/7/56 6/6/55 25/51/51
f 8/8/57 7/7/56 25/51/51
f 9/9/58 8/8/57 25/51/51
f 10/10/59 9/9/58 25/51/51
f 11/11/60 10/10/59 25/51/51
f 12/12/61 11/11/60 25/51/51
f 1/1/50 12/12/61 25/51/51
s 2
f 13/49/62 14/48/63 26/52/64
f 14/48/63 15/47/65 26/52/64
f 15/47/65 16/46/66 26/52/64
f 16/46/66 17/45/67 26/52/64
f 17/45/67 18/44/68 26/52/64
f 18/44/68 19/43/69 26/52/64
f 19/43/69 20/42/70 26/52/64
f 20/42/70 21/41/71 26/52/64
f 21/41/71 22/40/72 26/52/64
f 22/40/72 23/39/73 26/52/64
f 23/39/73 24/50/74 26/52/64
f 24/50/74 13/49/62 26/52/64
